<?xml version="1.0" encoding="utf-8"?>
<!-- Generator: Adobe Illustrator 17.0.0, SVG Export Plug-In . SVG Version: 6.00 Build 0)  -->
<!DOCTYPE svg PUBLIC "-//W3C//DTD SVG 1.1//EN" "http://www.w3.org/Graphics/SVG/1.1/DTD/svg11.dtd">
<svg version="1.1" id="Ebene_1" xmlns="http://www.w3.org/2000/svg" xmlns:xlink="http://www.w3.org/1999/xlink" x="0px" y="0px"
	 width="481.89px" height="481.89px" viewBox="0 0 481.89 481.89" enable-background="new 0 0 481.89 481.89" xml:space="preserve">
<g>
	<defs>
		<rect id="SVGID_1_" x="7.663" y="5.862" width="462.177" height="470.166"/>
	</defs>
	<clipPath id="SVGID_2_">
		<use xlink:href="#SVGID_1_"  overflow="visible"/>
	</clipPath>
	<polyline clip-path="url(#SVGID_2_)" fill="none" stroke="#FFFFFF" stroke-width="6" points="68.031,5.862 68.031,447.316 
		469.84,447.316 	"/>
	<path clip-path="url(#SVGID_2_)" fill="#FFFFFF" d="M116.299,259.554c-0.131,0.754-0.198,1.562-0.198,2.423
		c0,1.149,0.037,2.096,0.108,2.837h8.474v-2.19c0-2.178-0.305-3.854-0.916-5.027c-0.61-1.173-1.765-1.76-3.464-1.76
		c-0.814,0-1.496,0.157-2.047,0.467c-0.551,0.312-0.982,0.743-1.293,1.293C116.652,258.148,116.431,258.8,116.299,259.554
		 M124.683,214.438c0-2.178-0.305-3.854-0.916-5.027c-0.61-1.173-1.765-1.76-3.464-1.76c-0.814,0-1.496,0.157-2.047,0.467
		c-0.551,0.312-0.982,0.743-1.293,1.293c-0.311,0.551-0.532,1.203-0.664,1.957c-0.131,0.754-0.198,1.562-0.198,2.423
		c0,1.149,0.037,2.096,0.108,2.837h8.474V214.438z M155.899,66.3h-9.247c-0.014-0.112-0.021-0.248-0.021-0.408v-0.368
		c0-0.671,0.108-1.289,0.325-1.855c0.217-0.567,0.499-1.094,0.849-1.583c0.349-0.49,0.741-0.951,1.174-1.384
		c0.433-0.433,0.867-0.86,1.3-1.279c0.336-0.322,0.657-0.636,0.965-0.944c0.307-0.307,0.576-0.611,0.807-0.912
		c0.231-0.3,0.416-0.608,0.556-0.923c0.139-0.314,0.209-0.639,0.209-0.974c0-0.727-0.209-1.244-0.629-1.552
		c-0.419-0.307-0.929-0.462-1.53-0.462c-0.392,0-0.755,0.057-1.091,0.169c-0.335,0.111-0.632,0.244-0.891,0.398
		c-0.259,0.154-0.486,0.311-0.681,0.472c-0.196,0.16-0.343,0.29-0.44,0.387l-1.259-1.782c0.588-0.558,1.276-1.01,2.066-1.352
		c0.789-0.343,1.638-0.514,2.548-0.514c1.551,0,2.694,0.367,3.427,1.101c0.734,0.734,1.101,1.737,1.101,3.009
		c0,0.503-0.105,0.996-0.314,1.478c-0.21,0.482-0.479,0.951-0.807,1.405c-0.329,0.454-0.703,0.895-1.122,1.321
		c-0.42,0.426-0.839,0.842-1.258,1.248c-0.224,0.209-0.476,0.46-0.755,0.754c-0.28,0.294-0.545,0.587-0.797,0.881
		c-0.251,0.293-0.468,0.576-0.65,0.849c-0.182,0.273-0.28,0.5-0.293,0.681h6.458V66.3z M144.262,53.699
		c-0.462,0.517-0.965,1.223-1.51,2.117c-0.545,0.895-1.063,1.905-1.552,3.03s-0.912,2.331-1.268,3.617
		c-0.357,1.286-0.577,2.565-0.661,3.837h-2.6c0.084-1.062,0.273-2.181,0.566-3.355c0.294-1.174,0.654-2.317,1.08-3.428
		c0.427-1.111,0.895-2.153,1.405-3.124c0.51-0.971,1.017-1.786,1.52-2.443h-6.688v-2.181h9.708V53.699z M126.083,57.221
		c2.069,0.112,3.596,0.584,4.581,1.416c0.986,0.831,1.478,1.967,1.478,3.407c0,0.657-0.111,1.265-0.335,1.824
		s-0.566,1.042-1.027,1.447c-0.461,0.405-1.042,0.723-1.741,0.954c-0.699,0.23-1.516,0.345-2.453,0.345
		c-0.377,0-0.762-0.028-1.153-0.083c-0.392-0.056-0.765-0.123-1.122-0.2c-0.356-0.076-0.674-0.157-0.954-0.24
		c-0.279-0.084-0.489-0.161-0.629-0.231l0.482-2.139c0.294,0.14,0.717,0.291,1.269,0.451c0.552,0.161,1.226,0.241,2.023,0.241
		c0.546,0,1.014-0.059,1.405-0.178c0.391-0.119,0.71-0.283,0.954-0.493c0.245-0.209,0.423-0.451,0.535-0.723
		c0.112-0.273,0.168-0.563,0.168-0.87c0-0.462-0.091-0.874-0.273-1.238c-0.182-0.363-0.5-0.67-0.954-0.922
		c-0.454-0.252-1.062-0.44-1.824-0.566c-0.762-0.126-1.723-0.189-2.883-0.189c0.154-1.342,0.272-2.617,0.356-3.826
		c0.084-1.209,0.154-2.422,0.21-3.639h7.423v2.139h-5.263c-0.014,0.238-0.032,0.507-0.053,0.808
		c-0.021,0.301-0.042,0.604-0.063,0.912c-0.021,0.307-0.045,0.601-0.073,0.88C126.139,56.788,126.111,57.026,126.083,57.221
		 M120.338,202.912c1.461,0,2.711,0.257,3.753,0.772c1.041,0.515,1.89,1.263,2.549,2.244c0.659,0.982,1.143,2.178,1.454,3.59
		c0.311,1.414,0.466,3.029,0.466,4.848v2.262h8.762v4.524h-24.524c-0.24-1.052-0.401-2.219-0.485-3.5s-0.126-2.46-0.126-3.537
		c0-3.615,0.659-6.386,1.975-8.313C115.479,203.876,117.538,202.912,120.338,202.912 M116.942,66.3h-9.247
		c-0.014-0.112-0.021-0.248-0.021-0.408v-0.368c0-0.671,0.108-1.289,0.325-1.855c0.217-0.567,0.499-1.094,0.849-1.583
		c0.349-0.49,0.741-0.951,1.174-1.384c0.433-0.433,0.867-0.86,1.3-1.279c0.336-0.322,0.657-0.636,0.965-0.944
		c0.307-0.307,0.576-0.611,0.807-0.912c0.231-0.3,0.416-0.608,0.556-0.923c0.139-0.314,0.209-0.639,0.209-0.974
		c0-0.727-0.209-1.244-0.629-1.552c-0.419-0.307-0.929-0.462-1.53-0.462c-0.392,0-0.755,0.057-1.091,0.169
		c-0.335,0.111-0.632,0.244-0.891,0.398c-0.259,0.154-0.486,0.311-0.681,0.472c-0.196,0.16-0.343,0.29-0.44,0.387l-1.259-1.782
		c0.588-0.558,1.276-1.01,2.066-1.352c0.789-0.343,1.638-0.514,2.548-0.514c1.551,0,2.694,0.367,3.427,1.101
		c0.734,0.734,1.101,1.737,1.101,3.009c0,0.503-0.105,0.996-0.314,1.478c-0.21,0.482-0.479,0.951-0.807,1.405
		c-0.329,0.454-0.703,0.895-1.122,1.321c-0.42,0.426-0.839,0.842-1.258,1.248c-0.224,0.209-0.476,0.46-0.755,0.754
		c-0.28,0.294-0.545,0.587-0.797,0.881c-0.251,0.293-0.468,0.576-0.65,0.849c-0.182,0.273-0.28,0.5-0.293,0.681h6.458V66.3z
		 M105.032,66.3h-9.247c-0.014-0.112-0.021-0.248-0.021-0.408v-0.368c0-0.671,0.108-1.289,0.325-1.855
		c0.217-0.567,0.5-1.094,0.849-1.583c0.349-0.49,0.741-0.951,1.175-1.384c0.433-0.433,0.866-0.86,1.299-1.279
		c0.336-0.322,0.658-0.636,0.965-0.944c0.307-0.307,0.577-0.611,0.807-0.912c0.231-0.3,0.416-0.608,0.556-0.923
		c0.14-0.314,0.21-0.639,0.21-0.974c0-0.727-0.21-1.244-0.629-1.552c-0.42-0.307-0.93-0.462-1.531-0.462
		c-0.392,0-0.755,0.057-1.09,0.169c-0.336,0.111-0.633,0.244-0.892,0.398c-0.258,0.154-0.485,0.311-0.681,0.472
		c-0.196,0.16-0.342,0.29-0.44,0.387L95.429,53.3c0.587-0.558,1.275-1.01,2.065-1.352c0.79-0.343,1.639-0.514,2.548-0.514
		c1.551,0,2.694,0.367,3.428,1.101c0.734,0.734,1.101,1.737,1.101,3.009c0,0.503-0.105,0.996-0.315,1.478
		c-0.21,0.482-0.479,0.951-0.807,1.405c-0.329,0.454-0.703,0.895-1.122,1.321c-0.419,0.426-0.838,0.842-1.258,1.248
		c-0.224,0.209-0.475,0.46-0.755,0.754c-0.279,0.294-0.545,0.587-0.797,0.881c-0.251,0.293-0.468,0.576-0.649,0.849
		c-0.183,0.273-0.28,0.5-0.294,0.681h6.458V66.3z M126.299,231.637v10.808h11.023v4.524h-24.884v-4.524h9.947v-10.808h-9.947v-4.525
		h24.884v4.525H126.299z M112.187,262.301c0-3.615,0.659-6.386,1.975-8.313c1.317-1.926,3.376-2.89,6.176-2.89
		c1.461,0,2.711,0.257,3.753,0.772c1.041,0.515,1.89,1.263,2.549,2.244c0.659,0.982,1.143,2.178,1.454,3.591
		c0.311,1.413,0.466,3.028,0.466,4.847v2.262h8.762v4.524h-24.524c-0.24-1.053-0.401-2.219-0.485-3.5
		C112.229,264.557,112.187,263.378,112.187,262.301 M161.971,34.232H90.153v412h71.818V34.232z"/>
	<path clip-path="url(#SVGID_2_)" fill="#FFFFFF" d="M214.357,421.952h3.879v-5.85c-0.336,0.405-0.682,0.839-1.038,1.3
		c-0.356,0.461-0.703,0.943-1.038,1.447c-0.336,0.503-0.657,1.017-0.964,1.541C214.888,420.913,214.608,421.435,214.357,421.952
		 M243.25,422.35c0.084-0.656,0.126-1.362,0.126-2.117s-0.042-1.461-0.126-2.119c-0.084-0.657-0.22-1.226-0.409-1.708
		c-0.189-0.483-0.437-0.863-0.745-1.143c-0.307-0.279-0.691-0.419-1.153-0.419c-0.461,0-0.849,0.14-1.163,0.419
		c-0.315,0.28-0.566,0.66-0.755,1.143c-0.189,0.482-0.322,1.051-0.399,1.708c-0.076,0.658-0.115,1.364-0.115,2.119
		s0.039,1.461,0.115,2.117c0.077,0.657,0.21,1.227,0.399,1.709s0.44,0.863,0.755,1.143c0.314,0.28,0.702,0.419,1.163,0.419
		c0.462,0,0.846-0.139,1.153-0.419c0.308-0.28,0.556-0.661,0.745-1.143C243.03,423.577,243.166,423.007,243.25,422.35
		 M245.996,420.233c0,2.446-0.447,4.322-1.341,5.63c-0.895,1.306-2.132,1.96-3.712,1.96c-1.579,0-2.817-0.654-3.711-1.96
		c-0.895-1.308-1.342-3.184-1.342-5.63c0-1.217,0.116-2.296,0.346-3.241c0.231-0.943,0.566-1.736,1.006-2.379
		c0.441-0.643,0.972-1.132,1.594-1.468c0.622-0.335,1.324-0.503,2.107-0.503c1.58,0,2.817,0.653,3.712,1.961
		C245.549,415.909,245.996,417.786,245.996,420.233 M231.047,419.624c0.755,0.266,1.38,0.706,1.876,1.321
		c0.496,0.616,0.745,1.405,0.745,2.37c0,0.642-0.113,1.24-0.336,1.793c-0.224,0.551-0.566,1.027-1.028,1.425
		c-0.46,0.399-1.044,0.713-1.75,0.944c-0.706,0.23-1.548,0.346-2.527,0.346c-0.377,0-0.765-0.025-1.163-0.074
		c-0.399-0.049-0.776-0.112-1.133-0.188c-0.356-0.077-0.681-0.161-0.975-0.252c-0.293-0.091-0.517-0.178-0.671-0.262l0.504-2.16
		c0.293,0.14,0.719,0.297,1.278,0.472c0.56,0.174,1.251,0.262,2.076,0.262c1.105,0,1.901-0.213,2.391-0.639
		c0.489-0.427,0.734-0.996,0.734-1.709c0-0.461-0.095-0.846-0.284-1.154c-0.188-0.307-0.447-0.555-0.775-0.744
		c-0.329-0.188-0.706-0.321-1.133-0.398c-0.426-0.077-0.877-0.115-1.352-0.115h-0.86v-2.055h1.049c0.321,0,0.646-0.032,0.975-0.095
		c0.328-0.062,0.625-0.175,0.891-0.336c0.265-0.16,0.482-0.373,0.65-0.638c0.168-0.266,0.251-0.609,0.251-1.028
		c0-0.336-0.062-0.622-0.188-0.86c-0.126-0.237-0.291-0.433-0.493-0.587c-0.203-0.153-0.437-0.266-0.703-0.335
		c-0.265-0.07-0.544-0.105-0.838-0.105c-0.629,0-1.188,0.094-1.678,0.283c-0.489,0.188-0.922,0.402-1.299,0.639l-0.923-1.887
		c0.196-0.125,0.433-0.258,0.713-0.398c0.279-0.14,0.59-0.273,0.933-0.398c0.342-0.126,0.709-0.228,1.101-0.305
		c0.391-0.076,0.803-0.115,1.237-0.115c0.81,0,1.509,0.097,2.097,0.294c0.587,0.195,1.072,0.472,1.457,0.828
		c0.384,0.356,0.671,0.775,0.86,1.258c0.188,0.482,0.282,1.009,0.282,1.583c0,0.671-0.185,1.272-0.555,1.803
		C232.112,418.94,231.634,419.345,231.047,419.624 M222.345,424.027h-1.635v3.481h-2.474v-3.481h-6.374v-1.803
		c0.279-0.614,0.653-1.32,1.121-2.117c0.468-0.797,0.989-1.615,1.563-2.453c0.572-0.839,1.18-1.665,1.824-2.475
		c0.642-0.811,1.286-1.544,1.929-2.201h2.411v8.974h1.635V424.027z M206.473,427.508h-9.247c-0.013-0.111-0.021-0.248-0.021-0.409
		v-0.366c0-0.671,0.109-1.29,0.326-1.857c0.216-0.565,0.499-1.093,0.849-1.583c0.349-0.489,0.74-0.95,1.174-1.384
		c0.433-0.432,0.867-0.859,1.3-1.278c0.335-0.322,0.657-0.637,0.965-0.944c0.307-0.307,0.576-0.612,0.807-0.912
		c0.23-0.3,0.415-0.608,0.555-0.922c0.14-0.315,0.21-0.64,0.21-0.976c0-0.726-0.21-1.244-0.629-1.552
		c-0.419-0.306-0.93-0.461-1.531-0.461c-0.391,0-0.755,0.056-1.09,0.169c-0.336,0.112-0.632,0.244-0.891,0.398
		c-0.259,0.153-0.486,0.311-0.681,0.471c-0.197,0.162-0.343,0.291-0.441,0.388l-1.258-1.782c0.587-0.558,1.275-1.01,2.065-1.352
		c0.79-0.342,1.639-0.514,2.548-0.514c1.551,0,2.695,0.367,3.428,1.1c0.734,0.735,1.101,1.738,1.101,3.009
		c0,0.504-0.105,0.996-0.314,1.479c-0.21,0.482-0.479,0.951-0.808,1.405c-0.328,0.454-0.702,0.895-1.122,1.32
		c-0.419,0.427-0.838,0.843-1.257,1.248c-0.225,0.21-0.476,0.461-0.755,0.755c-0.28,0.293-0.546,0.587-0.797,0.881
		c-0.252,0.293-0.468,0.576-0.65,0.849c-0.182,0.272-0.28,0.5-0.294,0.681h6.458V427.508z M258.204,402.192h-71.856v45.624h71.856
		V402.192z"/>
</g>
<rect x="282.41" y="442.24" fill="#FFFFFF" width="71.995" height="4.576"/>
<rect x="382.859" y="444.948" fill="#FFFFFF" width="57.979" height="1.576"/>
<path fill="none" stroke="#FFFFFF" stroke-width="4" d="M64.075,44.128h7.913 M64.075,80.982h7.913 M64.075,117.594h7.913
	 M64.075,154.207h7.913 M64.075,190.82h7.913 M64.075,227.432h7.913 M64.075,264.044h7.913 M64.075,300.656h7.913 M64.075,337.27
	h7.913 M64.075,373.883h7.913 M64.075,410.495h7.913"/>
<text transform="matrix(1 0 0 1 18.8891 415.5045)" fill="#FFFFFF" font-family="'Ubuntu-Medium'" font-size="14.85">2000</text>
<text transform="matrix(1 0 0 1 18.8891 378.8249)" fill="#FFFFFF" font-family="'Ubuntu-Medium'" font-size="14.85">4000</text>
<text transform="matrix(1 0 0 1 18.8891 342.1452)" fill="#FFFFFF" font-family="'Ubuntu-Medium'" font-size="14.85">6000</text>
<text transform="matrix(1 0 0 1 18.8891 305.4655)" fill="#FFFFFF" font-family="'Ubuntu-Medium'" font-size="14.85">8000</text>
<g>
	<defs>
		<rect id="SVGID_3_" x="7.663" y="5.862" width="462.177" height="470.166"/>
	</defs>
	<clipPath id="SVGID_4_">
		<use xlink:href="#SVGID_3_"  overflow="visible"/>
	</clipPath>
	<g clip-path="url(#SVGID_4_)">
		<text transform="matrix(1 0 0 1 6.9951 268.7868)" fill="#FFFFFF" font-family="'Ubuntu-Medium'" font-size="14.85">10 000</text>
	</g>
</g>
<text transform="matrix(-6.123234e-17 -1 1 -6.123234e-17 234.4145 378.6392)" fill="#FFFFFF" font-family="'Ubuntu-Medium'" font-size="35.9068">JA</text>
<text transform="matrix(-6.123234e-17 -1 1 -6.123234e-17 234.4148 337.8853)" fill="#FFFFFF" font-family="'Ubuntu-Medium'" font-size="35.9068">VA</text>
<text transform="matrix(-6.123234e-17 -1 1 -6.123234e-17 329.0648 378.6387)" fill="#FFFFFF" font-family="'Ubuntu-Medium'" font-size="35.9068">PY</text>
<text transform="matrix(-6.123234e-17 -1 1 -6.123234e-17 329.065 332.8926)" fill="#FFFFFF" font-family="'Ubuntu-Medium'" font-size="35.9068">THON</text>
<text transform="matrix(-6.123234e-17 -1 1 -6.123234e-17 421.2375 378.6387)" fill="#FFFFFF" font-family="'Ubuntu-Medium'" font-size="35.9068">ZO</text>
<text transform="matrix(-6.123234e-17 -1 1 -6.123234e-17 421.2379 330.5957)" fill="#FFFFFF" font-family="'Ubuntu-Medium'" font-size="35.9068">PE</text>
<g>
	<defs>
		<rect id="SVGID_5_" x="7.663" y="5.862" width="462.177" height="470.166"/>
	</defs>
	<clipPath id="SVGID_6_">
		<use xlink:href="#SVGID_5_"  overflow="visible"/>
	</clipPath>
	<g clip-path="url(#SVGID_6_)">
		<text transform="matrix(1 0 0 1 6.9951 233.6237)" fill="#FFFFFF" font-family="'Ubuntu-Medium'" font-size="14.85">12 000</text>
	</g>
	<g clip-path="url(#SVGID_6_)">
		<text transform="matrix(1 0 0 1 6.9951 196.5729)" fill="#FFFFFF" font-family="'Ubuntu-Medium'" font-size="14.85">14 000</text>
	</g>
	<g clip-path="url(#SVGID_6_)">
		<text transform="matrix(1 0 0 1 6.9951 159.5221)" fill="#FFFFFF" font-family="'Ubuntu-Medium'" font-size="14.85">16 000</text>
	</g>
	<g clip-path="url(#SVGID_6_)">
		<text transform="matrix(1 0 0 1 6.9951 122.4714)" fill="#FFFFFF" font-family="'Ubuntu-Medium'" font-size="14.85">18 000</text>
	</g>
	<g clip-path="url(#SVGID_6_)">
		<text transform="matrix(1 0 0 1 6.9951 85.4206)" fill="#FFFFFF" font-family="'Ubuntu-Medium'" font-size="14.85">20 000</text>
	</g>
	<g clip-path="url(#SVGID_6_)">
		<text transform="matrix(1 0 0 1 6.9951 48.7414)" fill="#FFFFFF" font-family="'Ubuntu-Medium'" font-size="14.85">22 000</text>
	</g>
	<g clip-path="url(#SVGID_6_)">
		<text transform="matrix(1 0 0 1 299.0454 475.7135)" fill="#FFFFFF" font-family="'Ubuntu-Medium'" font-size="20.9676">240</text>
	</g>
	<g clip-path="url(#SVGID_6_)">
		<text transform="matrix(1 0 0 1 402.1425 475.7135)" fill="#FFFFFF" font-family="'Ubuntu-Medium'" font-size="20.9676">55</text>
	</g>
</g>
</svg>
