<?xml version="1.0" encoding="utf-8"?>
<!-- Generator: Adobe Illustrator 17.0.0, SVG Export Plug-In . SVG Version: 6.00 Build 0)  -->
<!DOCTYPE svg PUBLIC "-//W3C//DTD SVG 1.1//EN" "http://www.w3.org/Graphics/SVG/1.1/DTD/svg11.dtd">
<svg version="1.1" id="Ebene_1" xmlns="http://www.w3.org/2000/svg" xmlns:xlink="http://www.w3.org/1999/xlink" x="0px" y="0px"
	 width="510.24px" height="481.89px" viewBox="0 0 510.24 481.89" enable-background="new 0 0 510.24 481.89" xml:space="preserve">
<line fill="none" stroke="#000000" x1="66.908" y1="402.27" x2="399.865" y2="402.27"/>
<g>
	<defs>
		<rect id="SVGID_1_" y="1.936" width="523.864" height="529.517"/>
	</defs>
	<clipPath id="SVGID_2_">
		<use xlink:href="#SVGID_1_"  overflow="visible"/>
	</clipPath>
	<path clip-path="url(#SVGID_2_)" fill="#FFFFFF" d="M113.437,269.575c-0.228,0.482-0.342,1.02-0.342,1.615
		c0,0.608,0.114,1.153,0.342,1.634c0.228,0.482,0.551,0.89,0.969,1.225c0.418,0.336,0.919,0.593,1.501,0.77
		c0.583,0.177,1.235,0.266,1.957,0.266s1.378-0.089,1.967-0.266c0.589-0.177,1.089-0.434,1.501-0.77
		c0.412-0.335,0.731-0.743,0.959-1.225c0.228-0.481,0.342-1.026,0.342-1.634c0-0.595-0.114-1.133-0.342-1.615
		c-0.228-0.481-0.547-0.89-0.959-1.226c-0.412-0.335-0.912-0.592-1.501-0.769c-0.589-0.177-1.245-0.266-1.967-0.266
		s-1.377,0.089-1.966,0.266c-0.589,0.177-1.089,0.434-1.501,0.769C113.985,268.685,113.665,269.094,113.437,269.575
		 M113.285,221.999h4.256v-1.045c0-0.582-0.031-1.095-0.095-1.539c-0.063-0.443-0.177-0.814-0.342-1.111
		c-0.164-0.298-0.386-0.523-0.665-0.674c-0.278-0.153-0.633-0.229-1.064-0.229c-0.405,0-0.747,0.076-1.026,0.229
		c-0.278,0.151-0.5,0.37-0.665,0.655c-0.164,0.285-0.281,0.624-0.351,1.016c-0.07,0.393-0.105,0.824-0.105,1.292
		C113.228,221.1,113.247,221.569,113.285,221.999 M113.285,233.836h4.484v-1.159c0-1.152-0.161-2.039-0.484-2.66
		c-0.323-0.62-0.934-0.931-1.834-0.931c-0.43,0-0.791,0.083-1.083,0.247c-0.291,0.165-0.519,0.393-0.684,0.684
		c-0.164,0.291-0.281,0.636-0.351,1.036c-0.07,0.399-0.105,0.826-0.105,1.282C113.228,232.943,113.247,233.443,113.285,233.836
		 M122.51,247.079c0.006-0.228,0.009-0.538,0.009-0.931c0-1.609-0.408-2.809-1.225-3.601c-0.817-0.791-1.96-1.187-3.43-1.187
		c-1.494,0-2.641,0.386-3.439,1.159c-0.798,0.773-1.197,1.97-1.197,3.591c0,0.71,0.019,1.216,0.057,1.52h9.196
		C122.494,247.491,122.504,247.307,122.51,247.079 M113.285,259.79h4.256v-1.045c0-0.583-0.031-1.095-0.095-1.539
		c-0.063-0.443-0.177-0.814-0.342-1.111c-0.164-0.298-0.386-0.523-0.665-0.675c-0.278-0.152-0.633-0.228-1.064-0.228
		c-0.405,0-0.747,0.076-1.026,0.228c-0.278,0.152-0.5,0.371-0.665,0.656c-0.164,0.284-0.281,0.624-0.351,1.016
		c-0.07,0.393-0.105,0.824-0.105,1.292C113.228,258.891,113.247,259.359,113.285,259.79 M113.639,66.951
		c0.084-0.657,0.126-1.363,0.126-2.118s-0.042-1.461-0.126-2.118c-0.083-0.657-0.22-1.226-0.408-1.709
		c-0.189-0.482-0.438-0.863-0.745-1.142c-0.307-0.28-0.692-0.42-1.153-0.42s-0.849,0.14-1.164,0.42
		c-0.314,0.279-0.566,0.66-0.755,1.142c-0.188,0.483-0.321,1.052-0.398,1.709c-0.077,0.657-0.115,1.363-0.115,2.118
		s0.038,1.461,0.115,2.118c0.077,0.657,0.21,1.226,0.398,1.709c0.189,0.482,0.441,0.863,0.755,1.142
		c0.315,0.28,0.703,0.42,1.164,0.42s0.846-0.14,1.153-0.42c0.307-0.279,0.556-0.66,0.745-1.142
		C113.419,68.177,113.556,67.608,113.639,66.951 M125.549,66.951c0.084-0.657,0.126-1.363,0.126-2.118s-0.042-1.461-0.126-2.118
		c-0.084-0.657-0.22-1.226-0.409-1.709c-0.189-0.482-0.437-0.863-0.744-1.142c-0.308-0.28-0.692-0.42-1.154-0.42
		c-0.461,0-0.849,0.14-1.163,0.42c-0.315,0.279-0.566,0.66-0.755,1.142c-0.189,0.483-0.322,1.052-0.398,1.709
		c-0.077,0.657-0.116,1.363-0.116,2.118s0.039,1.461,0.116,2.118c0.076,0.657,0.209,1.226,0.398,1.709
		c0.189,0.482,0.44,0.863,0.755,1.142c0.314,0.28,0.702,0.42,1.163,0.42c0.462,0,0.846-0.14,1.154-0.42
		c0.307-0.279,0.555-0.66,0.744-1.142C125.329,68.177,125.465,67.608,125.549,66.951 M132.384,66.552h3.879v-5.85
		c-0.335,0.406-0.681,0.839-1.038,1.3c-0.356,0.461-0.702,0.944-1.038,1.447c-0.335,0.503-0.657,1.017-0.964,1.541
		C132.915,65.514,132.636,66.035,132.384,66.552 M140.373,68.628h-1.636v3.481h-2.474v-3.481h-6.374v-1.803
		c0.279-0.615,0.653-1.321,1.122-2.118c0.468-0.797,0.989-1.614,1.562-2.453c0.573-0.839,1.181-1.663,1.824-2.474
		c0.643-0.811,1.286-1.545,1.929-2.202h2.411v8.974h1.636V68.628z M128.296,64.833c0,2.446-0.448,4.323-1.342,5.63
		c-0.895,1.307-2.132,1.96-3.712,1.96c-1.579,0-2.816-0.653-3.711-1.96c-0.895-1.307-1.342-3.184-1.342-5.63
		c0-1.216,0.116-2.296,0.346-3.24c0.231-0.943,0.566-1.736,1.007-2.38c0.44-0.642,0.971-1.132,1.593-1.467
		c0.622-0.336,1.324-0.503,2.107-0.503c1.58,0,2.817,0.653,3.712,1.96C127.848,60.51,128.296,62.387,128.296,64.833
		 M117.437,184.959c0.234-0.487,0.513-0.899,0.836-1.235c0.323-0.335,0.703-0.592,1.14-0.769c0.437-0.178,0.966-0.266,1.586-0.266
		c1.191,0,2.113,0.421,2.765,1.263c0.652,0.843,0.978,2.074,0.978,3.696c0,0.545-0.035,1.042-0.104,1.491
		c-0.07,0.45-0.155,0.849-0.257,1.197c-0.101,0.349-0.205,0.649-0.313,0.903c-0.108,0.253-0.206,0.456-0.295,0.608l-1.957-0.703
		c0.19-0.342,0.38-0.805,0.57-1.387c0.19-0.583,0.285-1.286,0.285-2.109c0-0.862-0.145-1.489-0.437-1.881
		c-0.291-0.393-0.703-0.589-1.235-0.589c-0.316,0-0.589,0.066-0.817,0.199c-0.228,0.133-0.433,0.323-0.617,0.57
		c-0.184,0.247-0.355,0.548-0.513,0.903c-0.158,0.354-0.314,0.76-0.466,1.216c-0.164,0.456-0.345,0.896-0.541,1.32
		c-0.196,0.425-0.44,0.798-0.732,1.121c-0.291,0.323-0.639,0.583-1.045,0.779c-0.405,0.197-0.893,0.295-1.463,0.295
		c-1.19,0-2.124-0.412-2.802-1.235s-1.017-1.945-1.017-3.363c0-0.824,0.092-1.555,0.276-2.195c0.184-0.639,0.383-1.143,0.598-1.51
		l1.938,0.741c-0.24,0.43-0.424,0.902-0.551,1.415c-0.126,0.513-0.19,1.042-0.19,1.587c0,0.646,0.133,1.149,0.399,1.51
		s0.64,0.542,1.121,0.542c0.292,0,0.542-0.06,0.751-0.181c0.209-0.12,0.396-0.291,0.56-0.513c0.165-0.221,0.317-0.481,0.456-0.779
		c0.14-0.297,0.273-0.624,0.399-0.978C116.971,186.001,117.203,185.447,117.437,184.959 M116.386,64.833
		c0,2.446-0.447,4.323-1.342,5.63c-0.895,1.307-2.132,1.96-3.711,1.96c-1.58,0-2.817-0.653-3.711-1.96
		c-0.895-1.307-1.342-3.184-1.342-5.63c0-1.216,0.115-2.296,0.346-3.24c0.23-0.943,0.566-1.736,1.006-2.38
		c0.44-0.642,0.972-1.132,1.594-1.467c0.622-0.336,1.324-0.503,2.107-0.503c1.579,0,2.816,0.653,3.711,1.96
		C115.939,60.51,116.386,62.387,116.386,64.833 M101.751,72.109h-2.537V60.975c-0.378,0.293-0.853,0.58-1.426,0.86
		c-0.573,0.279-1.125,0.51-1.656,0.691l-0.776-1.928c0.81-0.322,1.625-0.734,2.442-1.238c0.818-0.503,1.542-1.097,2.171-1.782h1.782
		V72.109z M110.986,197.243c0-0.824,0.092-1.555,0.276-2.195c0.184-0.639,0.383-1.143,0.598-1.511l1.938,0.741
		c-0.24,0.431-0.424,0.903-0.551,1.416c-0.126,0.513-0.19,1.042-0.19,1.587c0,0.645,0.133,1.149,0.399,1.51
		c0.266,0.361,0.64,0.541,1.121,0.541c0.292,0,0.542-0.059,0.751-0.18c0.209-0.12,0.396-0.291,0.56-0.513
		c0.165-0.221,0.317-0.481,0.456-0.779c0.14-0.297,0.273-0.624,0.399-0.979c0.228-0.62,0.46-1.174,0.694-1.662
		c0.234-0.487,0.513-0.899,0.836-1.235c0.323-0.335,0.703-0.592,1.14-0.77c0.437-0.177,0.966-0.265,1.586-0.265
		c1.191,0,2.113,0.421,2.765,1.263c0.652,0.843,0.978,2.074,0.978,3.696c0,0.544-0.035,1.042-0.104,1.491
		c-0.07,0.45-0.155,0.849-0.257,1.197c-0.101,0.349-0.205,0.649-0.313,0.903c-0.108,0.253-0.206,0.456-0.295,0.608l-1.957-0.704
		c0.19-0.341,0.38-0.804,0.57-1.387c0.19-0.582,0.285-1.285,0.285-2.108c0-0.862-0.145-1.489-0.437-1.882
		c-0.291-0.392-0.703-0.589-1.235-0.589c-0.316,0-0.589,0.067-0.817,0.2c-0.228,0.133-0.433,0.323-0.617,0.57
		c-0.184,0.247-0.355,0.548-0.513,0.902c-0.158,0.355-0.314,0.761-0.466,1.217c-0.164,0.455-0.345,0.896-0.541,1.32
		c-0.196,0.425-0.44,0.798-0.732,1.121c-0.291,0.323-0.639,0.583-1.045,0.779c-0.405,0.197-0.893,0.295-1.463,0.295
		c-1.19,0-2.124-0.412-2.802-1.235C111.325,199.782,110.986,198.661,110.986,197.243 M119.46,257.814
		c0.013,0.178,0.019,0.33,0.019,0.456v0.361v1.159h4.978v2.394H111.48c-0.126-0.583-0.212-1.203-0.256-1.862
		c-0.044-0.658-0.067-1.247-0.067-1.767c0-1.9,0.349-3.353,1.045-4.36c0.697-1.007,1.761-1.511,3.192-1.511
		c1.786,0,2.996,0.881,3.629,2.641c0.292-0.24,0.646-0.513,1.064-0.817c0.418-0.304,0.871-0.614,1.359-0.931
		c0.488-0.317,0.988-0.621,1.501-0.912c0.513-0.291,1.016-0.551,1.51-0.779v2.679c-0.456,0.241-0.915,0.501-1.377,0.779
		c-0.462,0.279-0.912,0.561-1.349,0.846c-0.437,0.284-0.849,0.566-1.235,0.845S119.764,257.574,119.46,257.814 M124.609,246.3
		c0,0.532-0.022,1.134-0.066,1.805c-0.045,0.671-0.136,1.311-0.276,1.919H111.48c-0.139-0.608-0.228-1.254-0.266-1.938
		c-0.038-0.684-0.057-1.292-0.057-1.824c0-1.102,0.13-2.109,0.39-3.021c0.26-0.912,0.665-1.694,1.216-2.347
		c0.551-0.652,1.248-1.155,2.09-1.51c0.842-0.354,1.846-0.532,3.011-0.532c1.14,0,2.132,0.178,2.974,0.532
		c0.842,0.355,1.545,0.858,2.109,1.51c0.564,0.653,0.982,1.438,1.254,2.357C124.473,244.169,124.609,245.186,124.609,246.3
		 M124.457,233.836v2.394H111.48c-0.126-0.557-0.212-1.175-0.256-1.852c-0.044-0.678-0.067-1.302-0.067-1.872
		c0-1.912,0.349-3.379,1.045-4.398c0.697-1.02,1.786-1.53,3.268-1.53c0.773,0,1.435,0.136,1.986,0.409
		c0.551,0.272,1.001,0.668,1.349,1.187c0.348,0.52,0.605,1.153,0.769,1.9c0.165,0.748,0.247,1.603,0.247,2.565v1.197H124.457z
		 M122.424,209.839v-6.516h2.033v8.911H111.29v-8.456h2.033v6.061h3.249v-5.396h1.995v5.396H122.424z M119.46,220.023
		c0.013,0.178,0.019,0.33,0.019,0.456v0.361v1.159h4.978v2.394H111.48c-0.126-0.582-0.212-1.203-0.256-1.862
		c-0.044-0.658-0.067-1.247-0.067-1.767c0-1.9,0.349-3.353,1.045-4.36c0.697-1.007,1.761-1.51,3.192-1.51
		c1.786,0,2.996,0.88,3.629,2.641c0.292-0.241,0.646-0.513,1.064-0.817c0.418-0.304,0.871-0.615,1.359-0.932
		c0.488-0.316,0.988-0.62,1.501-0.912c0.513-0.291,1.016-0.55,1.51-0.778v2.679c-0.456,0.24-0.915,0.5-1.377,0.779
		c-0.462,0.278-0.912,0.56-1.349,0.845c-0.437,0.285-0.849,0.567-1.235,0.845C120.11,219.523,119.764,219.783,119.46,220.023
		 M110.986,271.171c0-0.861,0.146-1.678,0.437-2.451c0.292-0.773,0.729-1.447,1.311-2.024c0.583-0.576,1.302-1.035,2.157-1.377
		c0.855-0.342,1.846-0.513,2.973-0.513c1.128,0,2.122,0.168,2.983,0.503c0.862,0.336,1.581,0.792,2.157,1.369
		c0.576,0.576,1.01,1.251,1.301,2.023c0.292,0.773,0.437,1.596,0.437,2.47c0,0.874-0.145,1.7-0.437,2.48
		c-0.291,0.779-0.725,1.456-1.301,2.032c-0.576,0.577-1.295,1.036-2.157,1.378c-0.861,0.342-1.855,0.513-2.983,0.513
		c-1.127,0-2.118-0.171-2.973-0.513c-0.855-0.342-1.574-0.807-2.157-1.397c-0.582-0.589-1.019-1.269-1.311-2.042
		C111.132,272.849,110.986,272.033,110.986,271.171 M111.29,278.79c2.382,0.443,4.671,0.936,6.869,1.48
		c2.198,0.544,4.297,1.151,6.298,1.821v2.304c-2.558,0.981-5.351,1.931-8.379,2.85c1.533,0.469,2.99,0.945,4.37,1.427
		c1.381,0.482,2.717,0.964,4.009,1.446v2.283c-2.001,0.683-4.1,1.293-6.298,1.83c-2.198,0.537-4.487,1.026-6.869,1.469v-2.565
		c0.862-0.152,1.742-0.314,2.641-0.485c0.9-0.171,1.783-0.348,2.651-0.532c0.868-0.183,1.707-0.37,2.517-0.56
		c0.811-0.19,1.558-0.38,2.242-0.57c-0.646-0.241-1.326-0.485-2.042-0.732c-0.716-0.247-1.444-0.49-2.185-0.731
		c-0.741-0.24-1.479-0.472-2.214-0.694c-0.734-0.221-1.444-0.427-2.128-0.617v-2.052c0.684-0.203,1.397-0.418,2.138-0.646
		c0.741-0.228,1.482-0.466,2.223-0.713c0.741-0.247,1.469-0.494,2.185-0.741c0.716-0.247,1.39-0.484,2.023-0.712
		c-0.684-0.19-1.428-0.374-2.232-0.551c-0.804-0.177-1.64-0.355-2.508-0.532c-0.868-0.178-1.751-0.352-2.651-0.523
		c-0.899-0.171-1.786-0.332-2.66-0.484V278.79z M146.864,33.936h-58V401.77h58V33.936z"/>
	<path clip-path="url(#SVGID_2_)" fill="#FFFFFF" d="M187.051,86.443c0.013-0.154,0.021-0.287,0.021-0.399v-0.293
		c0-0.559-0.039-1.087-0.116-1.583c-0.077-0.496-0.209-0.93-0.398-1.3s-0.448-0.664-0.776-0.881
		c-0.329-0.216-0.737-0.325-1.227-0.325c-0.405,0-0.751,0.084-1.038,0.252c-0.286,0.167-0.52,0.384-0.702,0.65
		c-0.182,0.265-0.314,0.552-0.398,0.859c-0.084,0.308-0.126,0.608-0.126,0.902c0,0.853,0.206,1.496,0.618,1.929
		c0.413,0.433,1.059,0.65,1.94,0.65c0.405,0,0.804-0.038,1.195-0.115C186.435,86.712,186.771,86.597,187.051,86.443 M193.928,88.875
		h3.879v-5.85c-0.336,0.406-0.682,0.839-1.038,1.3c-0.357,0.461-0.703,0.943-1.038,1.447c-0.335,0.503-0.657,1.017-0.964,1.541
		C194.459,87.837,194.179,88.358,193.928,88.875 M193.854,208.12c0.963,0.374,2.008,0.763,3.135,1.168v-4.332
		c-1.127,0.406-2.179,0.799-3.154,1.178c-0.975,0.381-1.786,0.71-2.432,0.988C192.074,207.414,192.891,207.747,193.854,208.12
		 M199.858,250.053c0.228-0.482,0.342-1.027,0.342-1.634c0-0.596-0.114-1.134-0.342-1.615c-0.228-0.482-0.548-0.89-0.96-1.226
		c-0.411-0.335-0.912-0.592-1.501-0.77c-0.589-0.177-1.244-0.265-1.966-0.265s-1.378,0.088-1.967,0.265
		c-0.589,0.178-1.089,0.435-1.501,0.77c-0.411,0.336-0.731,0.744-0.959,1.226c-0.228,0.481-0.342,1.019-0.342,1.615
		c0,0.607,0.114,1.152,0.342,1.634c0.228,0.481,0.551,0.89,0.969,1.225c0.418,0.336,0.918,0.592,1.501,0.769
		c0.583,0.178,1.235,0.267,1.957,0.267s1.377-0.089,1.966-0.267c0.589-0.177,1.09-0.433,1.501-0.769
		C199.31,250.943,199.63,250.534,199.858,250.053 M199.858,264.911c0.228-0.482,0.342-1.027,0.342-1.635
		c0-0.595-0.114-1.133-0.342-1.615c-0.228-0.481-0.548-0.889-0.96-1.225c-0.411-0.336-0.912-0.592-1.501-0.77
		c-0.589-0.177-1.244-0.265-1.966-0.265s-1.378,0.088-1.967,0.265c-0.589,0.178-1.089,0.434-1.501,0.77
		c-0.411,0.336-0.731,0.744-0.959,1.225c-0.228,0.482-0.342,1.02-0.342,1.615c0,0.608,0.114,1.153,0.342,1.635
		c0.228,0.481,0.551,0.889,0.969,1.225c0.418,0.336,0.918,0.592,1.501,0.769c0.583,0.178,1.235,0.267,1.957,0.267
		s1.377-0.089,1.966-0.267c0.589-0.177,1.09-0.433,1.501-0.769C199.31,265.8,199.63,265.392,199.858,264.911 M210.932,94.431h-2.537
		V83.298c-0.377,0.293-0.852,0.58-1.425,0.859c-0.574,0.28-1.126,0.511-1.657,0.692l-0.776-1.929
		c0.811-0.321,1.625-0.734,2.443-1.237c0.818-0.503,1.541-1.097,2.17-1.782h1.782V94.431z M202.309,276.766
		c0,0.836-0.118,1.562-0.352,2.176c-0.234,0.614-0.484,1.086-0.75,1.415l-1.881-0.855c0.215-0.316,0.421-0.706,0.617-1.168
		c0.197-0.463,0.295-0.934,0.295-1.416c0-0.81-0.203-1.399-0.608-1.767c-0.405-0.367-1.102-0.551-2.09-0.551h-8.683v-2.413h8.835
		c0.646,0,1.248,0.07,1.805,0.209c0.557,0.14,1.045,0.383,1.463,0.732c0.418,0.348,0.747,0.817,0.988,1.406
		C202.188,275.123,202.309,275.867,202.309,276.766 M202.309,263.257c0,0.874-0.146,1.701-0.437,2.48s-0.725,1.457-1.302,2.033
		c-0.576,0.577-1.295,1.035-2.156,1.377c-0.861,0.342-1.856,0.514-2.983,0.514s-2.119-0.172-2.974-0.514s-1.573-0.807-2.156-1.396
		c-0.583-0.589-1.02-1.27-1.311-2.043c-0.291-0.772-0.437-1.589-0.437-2.451c0-0.861,0.146-1.678,0.437-2.45
		c0.291-0.773,0.728-1.448,1.311-2.024c0.583-0.576,1.301-1.036,2.156-1.378s1.847-0.513,2.974-0.513s2.122,0.168,2.983,0.504
		c0.861,0.336,1.58,0.792,2.156,1.368c0.577,0.576,1.011,1.251,1.302,2.023C202.163,261.56,202.309,262.383,202.309,263.257
		 M202.309,248.4c0,0.874-0.146,1.7-0.437,2.479s-0.725,1.457-1.302,2.033c-0.576,0.576-1.295,1.035-2.156,1.377
		c-0.861,0.342-1.856,0.514-2.983,0.514s-2.119-0.172-2.974-0.514s-1.573-0.807-2.156-1.396c-0.583-0.589-1.02-1.27-1.311-2.043
		c-0.291-0.772-0.437-1.589-0.437-2.45c0-0.862,0.146-1.679,0.437-2.451c0.291-0.773,0.728-1.447,1.311-2.024
		c0.583-0.576,1.301-1.035,2.156-1.378c0.855-0.342,1.847-0.512,2.974-0.512s2.122,0.168,2.983,0.503
		c0.861,0.336,1.58,0.792,2.156,1.368c0.577,0.577,1.011,1.251,1.302,2.024C202.163,246.702,202.309,247.526,202.309,248.4
		 M202.024,239.774c-1.089-0.052-2.217-0.113-3.382-0.184c-1.165-0.071-2.321-0.149-3.468-0.232
		c-1.146-0.084-2.257-0.178-3.334-0.281c-1.077-0.103-2.071-0.212-2.983-0.329v-2.214c0.481-0.279,1.07-0.589,1.767-0.931
		c0.697-0.342,1.428-0.69,2.194-1.045c0.767-0.355,1.546-0.706,2.337-1.054c0.792-0.349,1.524-0.668,2.195-0.96
		c-0.671-0.291-1.403-0.608-2.195-0.95c-0.791-0.342-1.57-0.69-2.337-1.045c-0.766-0.355-1.497-0.703-2.194-1.045
		c-0.697-0.342-1.286-0.652-1.767-0.931v-2.157c0.963-0.116,1.985-0.226,3.068-0.329c1.083-0.103,2.192-0.196,3.325-0.28
		c1.134-0.084,2.274-0.161,3.42-0.232c1.147-0.071,2.265-0.133,3.354-0.184v2.355c-1.533,0.052-3.11,0.113-4.731,0.185
		c-1.621,0.071-3.192,0.177-4.712,0.319c0.291,0.14,0.64,0.304,1.045,0.494c0.405,0.19,0.845,0.393,1.32,0.608
		c0.475,0.216,0.966,0.434,1.473,0.655c0.507,0.222,0.997,0.437,1.472,0.646c0.475,0.209,0.919,0.403,1.33,0.58
		c0.412,0.178,0.764,0.33,1.055,0.456v1.786c-0.291,0.127-0.646,0.279-1.064,0.456c-0.418,0.178-0.865,0.37-1.34,0.58
		c-0.475,0.209-0.965,0.424-1.472,0.646c-0.507,0.221-0.994,0.44-1.463,0.655c-0.469,0.215-0.909,0.418-1.321,0.608
		c-0.411,0.19-0.756,0.355-1.035,0.494c1.52,0.142,3.091,0.249,4.712,0.32c1.621,0.071,3.198,0.132,4.731,0.184V239.774z
		 M202.024,222.617h-13.167v-2.394h11.096v-5.928h2.071V222.617z M202.024,213.479c-1.406-0.494-2.704-0.962-3.895-1.405
		c-1.191-0.443-2.318-0.877-3.382-1.3c-1.064-0.425-2.077-0.845-3.04-1.263c-0.963-0.417-1.913-0.848-2.85-1.291v-2.285
		c0.937-0.443,1.887-0.874,2.85-1.292s1.976-0.839,3.04-1.264c1.064-0.424,2.191-0.861,3.382-1.311
		c1.191-0.449,2.489-0.922,3.895-1.416v2.585c-0.519,0.178-1.032,0.362-1.539,0.552c-0.507,0.191-1.026,0.375-1.558,0.553v5.561
		c0.532,0.178,1.054,0.359,1.567,0.543c0.513,0.184,1.023,0.365,1.53,0.543V213.479z M201.916,90.951h-1.635v3.48h-2.474v-3.48
		h-6.374v-1.803c0.279-0.615,0.653-1.321,1.121-2.118c0.469-0.797,0.989-1.615,1.562-2.453c0.574-0.839,1.182-1.664,1.825-2.475
		c0.642-0.81,1.286-1.544,1.929-2.201h2.411v8.974h1.635V90.951z M189.671,85.856c0,2.823-0.726,4.962-2.18,6.416
		c-1.454,1.454-3.684,2.187-6.689,2.202l-0.105-2.118c0.839,0,1.597-0.07,2.275-0.21c0.678-0.14,1.272-0.363,1.783-0.671
		c0.51-0.307,0.94-0.709,1.289-1.206c0.349-0.496,0.615-1.108,0.797-1.834c-0.336,0.154-0.706,0.272-1.111,0.356
		c-0.406,0.084-0.797,0.126-1.175,0.126c-0.866,0-1.604-0.115-2.212-0.346c-0.608-0.231-1.104-0.552-1.488-0.964
		c-0.385-0.413-0.668-0.892-0.85-1.437c-0.181-0.545-0.272-1.132-0.272-1.761c0-0.545,0.091-1.101,0.272-1.667
		c0.182-0.566,0.469-1.087,0.86-1.562c0.391-0.475,0.888-0.863,1.489-1.164c0.601-0.3,1.314-0.451,2.139-0.451
		c1.705,0,2.994,0.549,3.868,1.646C189.234,82.309,189.671,83.857,189.671,85.856 M224.364,56.93h-57.867v344.84h57.867V56.93z"/>
	<path clip-path="url(#SVGID_2_)" fill="#FFFFFF" d="M269.117,267.541c-0.798,0.773-1.197,1.969-1.197,3.591
		c0,0.709,0.019,1.216,0.057,1.52h9.196c0.013-0.139,0.022-0.323,0.028-0.551c0.007-0.228,0.01-0.538,0.01-0.931
		c0-1.609-0.409-2.809-1.226-3.601c-0.817-0.791-1.96-1.187-3.429-1.187C271.061,266.382,269.915,266.768,269.117,267.541
		 M268.024,256.16c-0.069,0.393-0.104,0.823-0.104,1.292c0,0.507,0.019,0.975,0.057,1.406h4.256v-1.045
		c0-0.583-0.032-1.096-0.095-1.539c-0.063-0.443-0.177-0.814-0.342-1.112c-0.165-0.297-0.386-0.522-0.665-0.674
		c-0.279-0.152-0.633-0.228-1.064-0.228c-0.405,0-0.747,0.076-1.026,0.228c-0.279,0.152-0.5,0.37-0.665,0.655
		C268.211,255.428,268.094,255.767,268.024,256.16 M261.752,114.665c0.294-0.412,0.441-0.94,0.441-1.583
		c0-0.182-0.039-0.381-0.116-0.598c-0.077-0.216-0.202-0.416-0.377-0.597c-0.175-0.182-0.395-0.336-0.661-0.462
		c-0.265-0.126-0.587-0.188-0.964-0.188c-0.377,0-0.702,0.059-0.975,0.178c-0.273,0.119-0.493,0.272-0.661,0.461
		c-0.167,0.189-0.293,0.392-0.377,0.608c-0.084,0.217-0.126,0.43-0.126,0.64c0,0.531,0.199,1.034,0.598,1.509
		c0.398,0.476,1.066,0.853,2.002,1.133C261.053,115.444,261.459,115.077,261.752,114.665 M262.36,120.997
		c0.098-0.244,0.147-0.493,0.147-0.744c0-0.392-0.077-0.734-0.23-1.028c-0.154-0.293-0.375-0.548-0.661-0.765
		c-0.287-0.217-0.626-0.405-1.017-0.566c-0.391-0.161-0.825-0.304-1.3-0.43c-0.503,0.322-0.909,0.71-1.216,1.164
		c-0.308,0.454-0.461,0.996-0.461,1.625c0,0.209,0.042,0.433,0.126,0.671c0.083,0.237,0.223,0.454,0.419,0.65
		c0.195,0.196,0.447,0.36,0.755,0.492c0.307,0.133,0.692,0.2,1.153,0.2c0.419,0,0.783-0.056,1.09-0.168
		c0.308-0.112,0.559-0.262,0.755-0.451C262.116,121.458,262.262,121.242,262.36,120.997 M268.024,230.557
		c-0.069,0.399-0.104,0.827-0.104,1.283c0,0.608,0.019,1.109,0.057,1.501h4.484v-1.159c0-1.152-0.162-2.039-0.485-2.66
		s-0.934-0.931-1.833-0.931c-0.431,0-0.792,0.083-1.083,0.247c-0.291,0.165-0.519,0.393-0.684,0.684
		C268.211,229.814,268.094,230.159,268.024,230.557 M270.979,220.877c0.963,0.374,2.008,0.764,3.135,1.169v-4.332
		c-1.127,0.406-2.179,0.798-3.154,1.178s-1.786,0.709-2.432,0.988C269.199,220.172,270.016,220.504,270.979,220.877
		 M286.158,116.038c0.014-0.153,0.021-0.286,0.021-0.398v-0.294c0-0.559-0.038-1.086-0.115-1.583c-0.077-0.496-0.21-0.929-0.398-1.3
		c-0.189-0.37-0.448-0.664-0.776-0.88c-0.329-0.217-0.738-0.325-1.227-0.325c-0.405,0-0.751,0.083-1.038,0.251
		c-0.286,0.168-0.521,0.385-0.702,0.65c-0.182,0.266-0.315,0.553-0.398,0.86c-0.084,0.308-0.126,0.608-0.126,0.902
		c0,0.852,0.206,1.495,0.618,1.928c0.412,0.434,1.059,0.65,1.94,0.65c0.405,0,0.803-0.038,1.195-0.115
		C285.543,116.307,285.879,116.192,286.158,116.038 M288.779,115.451c0,2.824-0.727,4.963-2.18,6.416
		c-1.454,1.454-3.684,2.188-6.689,2.202l-0.105-2.118c0.839,0,1.597-0.07,2.275-0.21c0.678-0.139,1.272-0.363,1.782-0.671
		c0.511-0.307,0.94-0.709,1.29-1.205c0.349-0.496,0.615-1.108,0.797-1.835c-0.336,0.154-0.706,0.273-1.112,0.357
		c-0.405,0.084-0.796,0.125-1.174,0.125c-0.867,0-1.604-0.115-2.212-0.346c-0.608-0.23-1.104-0.552-1.489-0.964
		c-0.384-0.412-0.667-0.891-0.849-1.436c-0.182-0.545-0.272-1.133-0.272-1.762c0-0.545,0.09-1.1,0.272-1.667
		c0.182-0.566,0.468-1.086,0.86-1.562c0.391-0.475,0.887-0.863,1.489-1.163c0.6-0.301,1.313-0.451,2.138-0.451
		c1.706,0,2.995,0.549,3.869,1.646C288.342,111.904,288.779,113.452,288.779,115.451 M277.078,209.364v-5.928h2.071v8.322h-13.167
		v-2.394H277.078z M270.58,114.948c2.068,0.112,3.596,0.584,4.581,1.415c0.985,0.832,1.478,1.968,1.478,3.407
		c0,0.658-0.112,1.266-0.335,1.825c-0.224,0.559-0.566,1.041-1.028,1.446c-0.461,0.406-1.041,0.724-1.74,0.954
		c-0.699,0.231-1.517,0.346-2.453,0.346c-0.378,0-0.762-0.028-1.153-0.084c-0.392-0.055-0.766-0.122-1.122-0.199
		c-0.357-0.076-0.675-0.157-0.954-0.241c-0.28-0.084-0.49-0.16-0.629-0.23l0.482-2.139c0.294,0.14,0.716,0.29,1.269,0.451
		c0.552,0.16,1.226,0.241,2.023,0.241c0.545,0,1.013-0.06,1.405-0.178c0.391-0.119,0.709-0.283,0.954-0.493
		c0.244-0.21,0.422-0.451,0.534-0.724c0.112-0.272,0.168-0.562,0.168-0.87c0-0.461-0.091-0.873-0.272-1.237
		c-0.182-0.363-0.5-0.671-0.954-0.922c-0.455-0.252-1.063-0.441-1.825-0.566c-0.762-0.126-1.723-0.189-2.883-0.189
		c0.154-1.342,0.273-2.618,0.357-3.827c0.084-1.209,0.153-2.421,0.209-3.638h7.423v2.139h-5.263
		c-0.014,0.238-0.031,0.507-0.052,0.807c-0.021,0.301-0.042,0.605-0.063,0.912c-0.021,0.308-0.046,0.602-0.074,0.881
		C270.635,114.515,270.607,114.752,270.58,114.948 M276.052,217.099v5.562c0.532,0.177,1.054,0.358,1.567,0.542
		c0.513,0.185,1.023,0.366,1.53,0.543v2.49c-1.406-0.493-2.704-0.962-3.895-1.405c-1.191-0.443-2.318-0.876-3.382-1.3
		s-2.077-0.845-3.04-1.263c-0.963-0.417-1.913-0.848-2.85-1.291v-2.285c0.937-0.443,1.887-0.874,2.85-1.292s1.976-0.839,3.04-1.263
		c1.064-0.425,2.191-0.862,3.382-1.311c1.191-0.45,2.489-0.922,3.895-1.416v2.585c-0.519,0.177-1.032,0.362-1.539,0.552
		C277.103,216.738,276.584,216.922,276.052,217.099 M265.849,232.011c0-1.912,0.348-3.379,1.045-4.399
		c0.697-1.019,1.786-1.529,3.268-1.529c0.773,0,1.434,0.136,1.985,0.409c0.551,0.272,1.001,0.668,1.349,1.187
		c0.349,0.52,0.605,1.153,0.77,1.9c0.165,0.748,0.247,1.603,0.247,2.565v1.197h4.636v2.394h-12.977
		c-0.127-0.557-0.212-1.175-0.257-1.853C265.871,233.205,265.849,232.581,265.849,232.011 M262.591,116.499
		c0.825,0.448,1.436,0.965,1.835,1.552c0.398,0.587,0.597,1.279,0.597,2.076c0,0.601-0.105,1.16-0.314,1.677
		c-0.21,0.518-0.524,0.965-0.944,1.342c-0.419,0.378-0.94,0.671-1.562,0.881s-1.338,0.314-2.149,0.314
		c-0.951,0-1.74-0.133-2.369-0.398c-0.629-0.265-1.133-0.601-1.51-1.006c-0.377-0.406-0.647-0.842-0.807-1.311
		c-0.161-0.468-0.241-0.912-0.241-1.331c0-0.42,0.059-0.808,0.178-1.164c0.118-0.356,0.283-0.685,0.493-0.986
		c0.209-0.3,0.447-0.576,0.712-0.828c0.266-0.251,0.546-0.475,0.839-0.671c-0.643-0.447-1.122-0.933-1.436-1.457
		c-0.315-0.524-0.472-1.164-0.472-1.919c0-0.545,0.108-1.065,0.325-1.562c0.217-0.496,0.528-0.933,0.933-1.31
		c0.405-0.378,0.895-0.678,1.468-0.902c0.573-0.223,1.209-0.335,1.908-0.335c0.825,0,1.527,0.119,2.107,0.356
		c0.58,0.238,1.055,0.545,1.426,0.923c0.37,0.377,0.639,0.797,0.807,1.258s0.252,0.909,0.252,1.342c0,0.769-0.21,1.45-0.629,2.044
		C263.618,115.679,263.136,116.15,262.591,116.499 M265.849,257.623c0-1.9,0.348-3.354,1.045-4.361
		c0.697-1.007,1.761-1.51,3.192-1.51c1.786,0,2.996,0.88,3.629,2.641c0.291-0.241,0.646-0.513,1.064-0.817
		c0.418-0.304,0.871-0.614,1.358-0.931c0.488-0.317,0.988-0.621,1.501-0.912c0.513-0.291,1.017-0.551,1.511-0.779v2.679
		c-0.456,0.241-0.915,0.5-1.378,0.779c-0.462,0.279-0.912,0.56-1.349,0.845c-0.437,0.285-0.848,0.567-1.235,0.846
		c-0.386,0.278-0.731,0.538-1.035,0.779c0.013,0.177,0.019,0.329,0.019,0.456v0.361v1.159h4.978v2.394h-12.977
		c-0.127-0.583-0.212-1.203-0.257-1.862C265.871,258.731,265.849,258.142,265.849,257.623 M265.849,271.284
		c0-1.102,0.13-2.109,0.389-3.021c0.26-0.912,0.665-1.694,1.216-2.347c0.551-0.652,1.248-1.156,2.09-1.51
		c0.843-0.355,1.847-0.532,3.012-0.532c1.14,0,2.131,0.177,2.973,0.532c0.843,0.354,1.546,0.858,2.109,1.51
		c0.564,0.653,0.982,1.438,1.254,2.356c0.273,0.919,0.409,1.935,0.409,3.05c0,0.532-0.022,1.134-0.067,1.805
		c-0.044,0.671-0.136,1.311-0.275,1.919h-12.787c-0.139-0.608-0.228-1.254-0.266-1.938S265.849,271.816,265.849,271.284
		 M277.325,244c0-0.418-0.063-0.798-0.19-1.14c-0.127-0.342-0.323-0.637-0.589-0.884c-0.266-0.247-0.611-0.437-1.036-0.57
		c-0.424-0.133-0.934-0.199-1.529-0.199h-7.999v-2.413h8.227c0.76,0,1.457,0.104,2.09,0.313c0.633,0.209,1.184,0.526,1.653,0.95
		c0.469,0.425,0.833,0.966,1.092,1.625c0.26,0.659,0.39,1.438,0.39,2.337c0,0.899-0.13,1.672-0.39,2.318
		c-0.259,0.646-0.623,1.181-1.092,1.605c-0.469,0.425-1.02,0.738-1.653,0.941c-0.633,0.203-1.33,0.304-2.09,0.304h-8.227v-2.413
		h7.999c0.595,0,1.105-0.067,1.529-0.2c0.425-0.133,0.77-0.323,1.036-0.57c0.266-0.247,0.462-0.538,0.589-0.874
		C277.262,244.795,277.325,244.418,277.325,244 M301.837,87.728h-57.979V401.77h57.979V87.728z"/>
	<path clip-path="url(#SVGID_2_)" fill="#FFFFFF" d="M344.959,341.01c-0.069,0.399-0.104,0.826-0.104,1.282
		c0,0.608,0.019,1.109,0.057,1.501h4.484v-1.159c0-1.152-0.162-2.039-0.485-2.66c-0.323-0.62-0.934-0.931-1.833-0.931
		c-0.431,0-0.792,0.083-1.083,0.247c-0.291,0.165-0.519,0.393-0.684,0.684C345.146,340.266,345.029,340.611,344.959,341.01
		 M335.228,274.031h3.879v-5.85c-0.336,0.406-0.682,0.839-1.038,1.3c-0.357,0.462-0.703,0.944-1.038,1.447
		c-0.335,0.503-0.657,1.017-0.965,1.541C335.759,272.993,335.479,273.514,335.228,274.031 M353.918,330.133
		c0.228-0.482,0.342-1.026,0.342-1.634c0-0.596-0.114-1.134-0.342-1.615c-0.228-0.482-0.548-0.89-0.96-1.226
		c-0.411-0.335-0.912-0.592-1.501-0.769c-0.589-0.178-1.244-0.266-1.966-0.266c-0.722,0-1.378,0.088-1.967,0.266
		c-0.589,0.177-1.089,0.434-1.501,0.769c-0.411,0.336-0.731,0.744-0.959,1.226c-0.228,0.481-0.342,1.019-0.342,1.615
		c0,0.608,0.114,1.152,0.342,1.634c0.228,0.481,0.551,0.89,0.969,1.225c0.418,0.336,0.918,0.592,1.501,0.77
		c0.583,0.177,1.235,0.266,1.957,0.266c0.722,0,1.377-0.089,1.966-0.266c0.589-0.178,1.09-0.434,1.501-0.77
		C353.37,331.023,353.69,330.614,353.918,330.133 M363.492,270.226c0.293-0.412,0.44-0.94,0.44-1.583
		c0-0.182-0.039-0.381-0.115-0.598c-0.077-0.217-0.203-0.416-0.378-0.598c-0.175-0.181-0.395-0.335-0.66-0.461
		c-0.266-0.126-0.587-0.189-0.965-0.189c-0.377,0-0.702,0.06-0.975,0.179c-0.272,0.119-0.492,0.272-0.66,0.461
		s-0.294,0.391-0.377,0.608c-0.084,0.217-0.126,0.43-0.126,0.639c0,0.532,0.199,1.035,0.597,1.51
		c0.399,0.476,1.066,0.853,2.003,1.133C362.793,271.005,363.198,270.638,363.492,270.226 M364.1,276.558
		c0.098-0.244,0.147-0.493,0.147-0.744c0-0.392-0.077-0.734-0.231-1.028c-0.154-0.293-0.374-0.548-0.661-0.765
		c-0.286-0.217-0.625-0.405-1.016-0.566c-0.392-0.161-0.825-0.304-1.3-0.43c-0.504,0.322-0.909,0.709-1.216,1.164
		c-0.308,0.454-0.462,0.995-0.462,1.625c0,0.209,0.042,0.433,0.126,0.67c0.084,0.238,0.223,0.455,0.419,0.651
		c0.196,0.195,0.448,0.36,0.755,0.492c0.307,0.133,0.692,0.2,1.153,0.2c0.42,0,0.783-0.056,1.091-0.168
		c0.307-0.112,0.559-0.262,0.755-0.451C363.855,277.019,364.002,276.803,364.1,276.558 M364.33,272.06
		c0.825,0.448,1.437,0.965,1.835,1.552c0.399,0.587,0.598,1.279,0.598,2.076c0,0.601-0.105,1.16-0.315,1.677
		c-0.209,0.517-0.524,0.965-0.943,1.342c-0.42,0.378-0.941,0.671-1.562,0.881c-0.622,0.209-1.339,0.314-2.15,0.314
		c-0.95,0-1.74-0.133-2.369-0.398s-1.132-0.601-1.51-1.007c-0.377-0.405-0.646-0.842-0.807-1.31
		c-0.161-0.468-0.241-0.912-0.241-1.331c0-0.42,0.059-0.808,0.178-1.164c0.119-0.357,0.283-0.685,0.493-0.986
		c0.21-0.3,0.447-0.576,0.713-0.828c0.265-0.251,0.545-0.475,0.839-0.671c-0.643-0.447-1.122-0.933-1.437-1.457
		c-0.314-0.524-0.471-1.164-0.471-1.919c0-0.545,0.108-1.065,0.325-1.562c0.216-0.496,0.527-0.933,0.933-1.31
		c0.405-0.378,0.894-0.678,1.467-0.902c0.573-0.223,1.209-0.335,1.908-0.335c0.825,0,1.527,0.119,2.108,0.356
		c0.58,0.238,1.055,0.545,1.425,0.923c0.371,0.377,0.64,0.796,0.808,1.258c0.168,0.461,0.251,0.909,0.251,1.342
		c0,0.769-0.209,1.45-0.629,2.044C365.358,271.239,364.876,271.711,364.33,272.06 M356.369,328.48c0,0.874-0.146,1.7-0.437,2.479
		c-0.291,0.779-0.725,1.457-1.302,2.033c-0.576,0.577-1.295,1.035-2.156,1.378c-0.861,0.342-1.856,0.513-2.983,0.513
		c-1.127,0-2.119-0.171-2.974-0.513c-0.855-0.343-1.573-0.808-2.156-1.397c-0.583-0.589-1.02-1.27-1.311-2.042
		c-0.291-0.773-0.437-1.59-0.437-2.451c0-0.862,0.146-1.679,0.437-2.451c0.291-0.773,0.728-1.447,1.311-2.024
		c0.583-0.576,1.301-1.035,2.156-1.377c0.855-0.342,1.847-0.513,2.974-0.513c1.127,0,2.122,0.168,2.983,0.503
		c0.861,0.336,1.58,0.792,2.156,1.368c0.577,0.577,1.011,1.251,1.302,2.024C356.223,326.782,356.369,327.606,356.369,328.48
		 M356.369,312.159c0,0.342-0.022,0.693-0.067,1.054c-0.044,0.361-0.101,0.703-0.171,1.026c-0.069,0.323-0.145,0.618-0.228,0.884
		c-0.082,0.266-0.161,0.469-0.237,0.608l-1.957-0.456c0.127-0.266,0.269-0.652,0.427-1.159c0.159-0.507,0.238-1.133,0.238-1.881
		c0-1.001-0.193-1.722-0.58-2.166c-0.386-0.443-0.902-0.665-1.548-0.665c-0.418,0-0.766,0.085-1.045,0.256
		c-0.279,0.171-0.504,0.406-0.675,0.703c-0.171,0.298-0.291,0.64-0.361,1.026c-0.069,0.387-0.104,0.795-0.104,1.226v0.779h-1.862
		v-0.95c0-0.291-0.029-0.586-0.086-0.884c-0.057-0.297-0.158-0.566-0.304-0.807c-0.145-0.24-0.338-0.437-0.579-0.589
		s-0.551-0.228-0.931-0.228c-0.304,0-0.564,0.057-0.779,0.171c-0.215,0.114-0.393,0.263-0.532,0.446
		c-0.139,0.184-0.241,0.397-0.304,0.637c-0.063,0.241-0.095,0.494-0.095,0.76c0,0.57,0.085,1.077,0.256,1.52s0.365,0.836,0.58,1.178
		l-1.71,0.836c-0.114-0.177-0.234-0.393-0.361-0.646c-0.127-0.253-0.247-0.535-0.361-0.846c-0.114-0.31-0.206-0.642-0.276-0.997
		c-0.069-0.354-0.104-0.728-0.104-1.121c0-0.734,0.089-1.368,0.266-1.9s0.427-0.972,0.75-1.321c0.323-0.348,0.703-0.608,1.14-0.779
		c0.437-0.171,0.916-0.256,1.435-0.256c0.608,0,1.153,0.168,1.634,0.503c0.481,0.336,0.849,0.77,1.102,1.302
		c0.241-0.684,0.64-1.251,1.197-1.701c0.557-0.449,1.273-0.674,2.147-0.674c0.583,0,1.124,0.102,1.624,0.304
		c0.501,0.203,0.931,0.513,1.292,0.931c0.361,0.418,0.646,0.947,0.855,1.587C356.264,310.509,356.369,311.273,356.369,312.159
		 M354.497,279.588h-9.247c-0.014-0.112-0.021-0.248-0.021-0.409v-0.367c0-0.671,0.108-1.29,0.325-1.856
		c0.217-0.566,0.5-1.093,0.849-1.583c0.35-0.489,0.741-0.95,1.175-1.384c0.433-0.433,0.866-0.859,1.3-1.279
		c0.335-0.321,0.656-0.635,0.964-0.943c0.307-0.307,0.577-0.612,0.807-0.912c0.231-0.301,0.416-0.608,0.556-0.923
		c0.14-0.314,0.21-0.639,0.21-0.975c0-0.726-0.21-1.244-0.629-1.552c-0.42-0.307-0.93-0.461-1.531-0.461
		c-0.392,0-0.755,0.056-1.09,0.168c-0.336,0.112-0.633,0.245-0.892,0.398c-0.258,0.154-0.485,0.312-0.681,0.472
		c-0.196,0.161-0.343,0.29-0.44,0.388l-1.258-1.782c0.587-0.559,1.275-1.01,2.065-1.353c0.79-0.342,1.639-0.513,2.548-0.513
		c1.551,0,2.694,0.367,3.428,1.1c0.734,0.734,1.101,1.737,1.101,3.009c0,0.504-0.105,0.996-0.315,1.478
		c-0.21,0.483-0.479,0.951-0.807,1.405c-0.329,0.455-0.703,0.895-1.122,1.321c-0.419,0.427-0.839,0.843-1.258,1.248
		c-0.224,0.21-0.475,0.461-0.755,0.755l-1.447,1.73c-0.182,0.272-0.279,0.5-0.293,0.681h6.458V279.588z M343.216,276.107h-1.635
		v3.481h-2.474v-3.481h-6.374v-1.803c0.279-0.615,0.653-1.321,1.121-2.118c0.468-0.796,0.989-1.614,1.563-2.453
		c0.572-0.839,1.18-1.663,1.824-2.474c0.642-0.811,1.286-1.545,1.929-2.202h2.411v8.974h1.635V276.107z M342.784,342.463
		c0-1.912,0.348-3.378,1.045-4.398c0.697-1.02,1.786-1.53,3.268-1.53c0.773,0,1.434,0.137,1.985,0.409s1.001,0.668,1.349,1.187
		c0.349,0.52,0.605,1.153,0.77,1.9c0.165,0.748,0.247,1.603,0.247,2.565v1.197h4.636v2.394h-12.977
		c-0.127-0.557-0.212-1.174-0.257-1.852C342.806,343.657,342.784,343.033,342.784,342.463 M342.917,347.821
		c1.343,0.71,2.676,1.448,3.999,2.214c1.324,0.766,2.657,1.586,4,2.46h5.168v2.394h-5.13c-1.355,0.874-2.698,1.698-4.028,2.47
		c-1.33,0.773-2.666,1.514-4.009,2.223v-2.812c0.988-0.443,1.97-0.931,2.945-1.463s1.938-1.089,2.888-1.672
		c-0.95-0.57-1.913-1.127-2.888-1.672c-0.975-0.544-1.957-1.038-2.945-1.482V347.821z M342.917,360.38h2.071v4.047h11.096v2.413
		h-11.096v4.047h-2.071V360.38z M378.601,246.925h-57.979V401.77h57.979V246.925z"/>
	<path clip-path="url(#SVGID_2_)" fill="#FFFFFF" d="M422.533,393.735c0.084-0.314,0.126-0.618,0.126-0.912
		c0-0.839-0.203-1.478-0.608-1.918c-0.405-0.441-1.048-0.661-1.929-0.661c-0.405,0-0.797,0.035-1.174,0.105
		c-0.377,0.07-0.72,0.175-1.027,0.315c-0.014,0.112-0.025,0.234-0.032,0.366c-0.007,0.133-0.01,0.263-0.01,0.388
		c0,0.56,0.038,1.087,0.115,1.584c0.077,0.496,0.21,0.929,0.398,1.299c0.189,0.371,0.448,0.664,0.776,0.881s0.737,0.325,1.227,0.325
		c0.405,0,0.751-0.084,1.038-0.252c0.286-0.167,0.52-0.384,0.702-0.649C422.316,394.34,422.45,394.05,422.533,393.735
		 M436.665,397.31h-9.246c-0.014-0.111-0.021-0.248-0.021-0.409v-0.366c0-0.672,0.108-1.29,0.325-1.856
		c0.216-0.566,0.499-1.094,0.849-1.583c0.349-0.489,0.741-0.951,1.174-1.384c0.433-0.433,0.867-0.86,1.3-1.279
		c0.336-0.322,0.657-0.636,0.965-0.944c0.307-0.307,0.576-0.611,0.807-0.912c0.231-0.3,0.416-0.608,0.555-0.922
		c0.14-0.315,0.21-0.64,0.21-0.975c0-0.727-0.21-1.244-0.629-1.552c-0.419-0.307-0.93-0.461-1.53-0.461
		c-0.392,0-0.755,0.056-1.091,0.168c-0.335,0.112-0.632,0.244-0.891,0.398c-0.259,0.154-0.486,0.311-0.681,0.472
		c-0.196,0.161-0.343,0.29-0.441,0.388l-1.258-1.783c0.587-0.558,1.276-1.009,2.066-1.352c0.789-0.342,1.638-0.514,2.547-0.514
		c1.552,0,2.694,0.367,3.428,1.101s1.101,1.737,1.101,3.009c0,0.503-0.105,0.996-0.314,1.478c-0.21,0.482-0.479,0.951-0.808,1.405
		c-0.328,0.454-0.702,0.895-1.121,1.321c-0.42,0.426-0.839,0.842-1.258,1.247c-0.224,0.21-0.476,0.462-0.755,0.755
		c-0.28,0.294-0.545,0.587-0.797,0.881c-0.252,0.293-0.469,0.577-0.65,0.849c-0.182,0.273-0.28,0.5-0.294,0.682h6.458V397.31z
		 M425.217,392.781c0,0.546-0.094,1.105-0.283,1.678s-0.482,1.094-0.88,1.562c-0.399,0.468-0.899,0.853-1.5,1.153
		c-0.601,0.3-1.314,0.451-2.138,0.451c-1.664,0-2.932-0.549-3.806-1.646c-0.874-1.097-1.31-2.611-1.31-4.54
		c0-1.397,0.206-2.638,0.618-3.721c0.412-1.084,0.999-1.996,1.761-2.737c0.762-0.74,1.685-1.303,2.768-1.688
		c1.083-0.384,2.303-0.583,3.659-0.597l0.147,2.097c-0.755,0.014-1.461,0.094-2.118,0.241c-0.657,0.147-1.244,0.374-1.761,0.681
		c-0.517,0.308-0.961,0.706-1.332,1.195c-0.37,0.49-0.653,1.091-0.849,1.803c0.685-0.321,1.433-0.482,2.244-0.482
		c0.866,0,1.604,0.123,2.212,0.367c0.608,0.245,1.101,0.577,1.478,0.996c0.377,0.42,0.653,0.905,0.828,1.457
		C425.13,391.604,425.217,392.18,425.217,392.781 M455.681,378.935h-57.979v22.835h57.979V378.935z"/>
	<polyline clip-path="url(#SVGID_2_)" fill="none" stroke="#FFFFFF" stroke-width="4" points="64.864,1.936 64.864,402.936 
		498.864,402.936 	"/>
</g>
<line fill="none" stroke="#FFFFFF" stroke-width="4" x1="62.951" y1="365.449" x2="70.864" y2="365.449"/>
<line fill="none" stroke="#FFFFFF" stroke-width="4" x1="62.951" y1="328.837" x2="70.864" y2="328.837"/>
<line fill="none" stroke="#FFFFFF" stroke-width="4" x1="62.951" y1="292.224" x2="70.864" y2="292.224"/>
<line fill="none" stroke="#FFFFFF" stroke-width="4" x1="62.951" y1="255.611" x2="70.864" y2="255.611"/>
<line fill="none" stroke="#FFFFFF" stroke-width="4" x1="62.951" y1="218.999" x2="70.864" y2="218.999"/>
<line fill="none" stroke="#FFFFFF" stroke-width="4" x1="62.951" y1="182.386" x2="70.864" y2="182.386"/>
<line fill="none" stroke="#FFFFFF" stroke-width="4" x1="62.951" y1="145.774" x2="70.864" y2="145.774"/>
<line fill="none" stroke="#FFFFFF" stroke-width="4" x1="62.951" y1="109.161" x2="70.864" y2="109.161"/>
<line fill="none" stroke="#FFFFFF" stroke-width="4" x1="62.951" y1="72.548" x2="70.864" y2="72.548"/>
<line fill="none" stroke="#FFFFFF" stroke-width="4" x1="62.951" y1="35.936" x2="70.864" y2="35.936"/>
<text transform="matrix(1 0 0 1 26.2002 370.459)" fill="#FFFFFF" font-family="'Ubuntu-Medium'" font-size="14.85">100</text>
<text transform="matrix(1 0 0 1 26.2002 333.7794)" fill="#FFFFFF" font-family="'Ubuntu-Medium'" font-size="14.85">200</text>
<text transform="matrix(1 0 0 1 26.2002 297.1006)" fill="#FFFFFF" font-family="'Ubuntu-Medium'" font-size="14.85">200</text>
<text transform="matrix(1 0 0 1 26.2002 260.421)" fill="#FFFFFF" font-family="'Ubuntu-Medium'" font-size="14.85">400</text>
<text transform="matrix(1 0 0 1 26.2002 223.7413)" fill="#FFFFFF" font-family="'Ubuntu-Medium'" font-size="14.85">500</text>
<text transform="matrix(-6.123234e-17 -1 1 -6.123234e-17 432.3105 478.1777)"><tspan x="0" y="0" fill="#FFFFFF" font-family="'Ubuntu-Medium'" font-size="19">P</tspan><tspan x="11.837" y="0" fill="#FFFFFF" font-family="'Ubuntu-Medium'" font-size="19">L</tspan><tspan x="21.241" y="0" fill="#FFFFFF" font-family="'Ubuntu-Medium'" font-size="19">ONE</tspan></text>
<text transform="matrix(1 0 0 1 26.2002 187.088)" fill="#FFFFFF" font-family="'Ubuntu-Medium'" font-size="14.85">600</text>
<text transform="matrix(1 0 0 1 26.2002 150.4083)" fill="#FFFFFF" font-family="'Ubuntu-Medium'" font-size="14.85">700</text>
<text transform="matrix(1 0 0 1 26.2002 113.7286)" fill="#FFFFFF" font-family="'Ubuntu-Medium'" font-size="14.85">800</text>
<text transform="matrix(1 0 0 1 26.2002 77.0494)" fill="#FFFFFF" font-family="'Ubuntu-Medium'" font-size="14.85">900</text>
<text transform="matrix(1 0 0 1 17.7656 40.3697)" fill="#FFFFFF" font-family="'Ubuntu-Medium'" font-size="14.85">1000</text>
</svg>
